<?xml version="1.0" encoding="utf-8" standalone="no"?>
<!DOCTYPE svg PUBLIC "-//W3C//DTD SVG 1.1//EN"
  "http://www.w3.org/Graphics/SVG/1.1/DTD/svg11.dtd">
<svg xmlns:xlink="http://www.w3.org/1999/xlink" width="648pt" height="504pt" viewBox="0 0 648 504" xmlns="http://www.w3.org/2000/svg" version="1.1">
 <metadata>
  <rdf:RDF xmlns:dc="http://purl.org/dc/elements/1.1/" xmlns:cc="http://creativecommons.org/ns#" xmlns:rdf="http://www.w3.org/1999/02/22-rdf-syntax-ns#">
   <cc:Work>
    <dc:type rdf:resource="http://purl.org/dc/dcmitype/StillImage"/>
    <dc:date>2025-09-29T20:34:08.086529</dc:date>
    <dc:format>image/svg+xml</dc:format>
    <dc:creator>
     <cc:Agent>
      <dc:title>Matplotlib v3.10.5, https://matplotlib.org/</dc:title>
     </cc:Agent>
    </dc:creator>
   </cc:Work>
  </rdf:RDF>
 </metadata>
 <defs>
  <style type="text/css">*{stroke-linejoin: round; stroke-linecap: butt}</style>
 </defs>
 <g id="figure_1">
  <g id="patch_1">
   <path d="M 0 504 
L 648 504 
L 648 0 
L 0 0 
z
" style="fill: #ffffff"/>
  </g>
  <g id="axes_1">
   <g id="patch_2">
    <path d="M 532.96 267.76 
C 532.96 238.15549 527.128557 208.838847 515.799402 181.487847 
C 504.470246 154.136847 487.863702 129.283397 466.930153 108.349847 
C 445.996603 87.416298 421.143153 70.809754 393.792153 59.480598 
C 366.441153 48.151443 337.12451 42.32 307.52 42.32 
C 277.91549 42.32 248.598847 48.151443 221.247847 59.480598 
C 193.896847 70.809754 169.043397 87.416298 148.109847 108.349847 
C 127.176298 129.283397 110.569754 154.136847 99.240598 181.487847 
C 87.911443 208.838847 82.08 238.15549 82.08 267.76 
C 82.08 297.36451 87.911443 326.681153 99.240598 354.032153 
C 110.569754 381.383153 127.176298 406.236603 148.109847 427.170153 
C 169.043397 448.103702 193.896847 464.710246 221.247847 476.039402 
C 248.598847 487.368557 277.91549 493.2 307.52 493.2 
C 337.12451 493.2 366.441153 487.368557 393.792153 476.039402 
C 421.143153 464.710246 445.996603 448.103702 466.930153 427.170153 
C 487.863702 406.236603 504.470246 381.383153 515.799402 354.032153 
C 527.128557 326.681153 532.96 297.36451 532.96 267.76 
M 307.52 267.76 
C 307.52 267.76 307.52 267.76 307.52 267.76 
C 307.52 267.76 307.52 267.76 307.52 267.76 
C 307.52 267.76 307.52 267.76 307.52 267.76 
C 307.52 267.76 307.52 267.76 307.52 267.76 
C 307.52 267.76 307.52 267.76 307.52 267.76 
C 307.52 267.76 307.52 267.76 307.52 267.76 
C 307.52 267.76 307.52 267.76 307.52 267.76 
C 307.52 267.76 307.52 267.76 307.52 267.76 
C 307.52 267.76 307.52 267.76 307.52 267.76 
C 307.52 267.76 307.52 267.76 307.52 267.76 
C 307.52 267.76 307.52 267.76 307.52 267.76 
C 307.52 267.76 307.52 267.76 307.52 267.76 
C 307.52 267.76 307.52 267.76 307.52 267.76 
C 307.52 267.76 307.52 267.76 307.52 267.76 
C 307.52 267.76 307.52 267.76 307.52 267.76 
C 307.52 267.76 307.52 267.76 307.52 267.76 
z
" style="fill: #ffffff"/>
   </g>
   <g id="patch_3">
    <path d="M 519.453108 267.76 
L 388.018482 128.332539 
L 225.549188 125.782389 
L 224.396872 267.76 
L 208.710515 438.903047 
L 375.596974 385.672777 
z
" clip-path="url(#pdfd3ee0c8c)" style="fill: #1f77b4; opacity: 0.1"/>
   </g>
   <g id="patch_4">
    <path d="M 514.629217 267.76 
L 384.109715 135.102723 
L 239.579947 150.084376 
L 267.847598 267.76 
L 214.587936 428.723056 
L 366.004423 369.057993 
z
" clip-path="url(#pdfd3ee0c8c)" style="fill: #ff7f0e; opacity: 0.1"/>
   </g>
   <g id="patch_5">
    <path d="M 465.118081 267.76 
L 343.620785 205.231606 
L 249.058504 166.501719 
L 286.109497 267.76 
L 234.78692 393.737391 
L 335.519198 316.256034 
z
" clip-path="url(#pdfd3ee0c8c)" style="fill: #2ca02c; opacity: 0.1"/>
   </g>
   <g id="matplotlib.axis_1">
    <g id="xtick_1">
     <g id="line2d_1">
      <path d="M 307.52 267.76 
L 532.96 267.76 
" clip-path="url(#pdfd3ee0c8c)" style="fill: none; stroke: #b0b0b0; stroke-width: 0.8; stroke-linecap: square"/>
     </g>
     <g id="text_1">
      <!-- Pyn-line -->
      <g transform="translate(517.019375 271.296406) scale(0.13 -0.13)">
       <defs>
        <path id="DejaVuSans-Bold-50" d="M 588 4666 
L 2584 4666 
Q 3475 4666 3951 4270 
Q 4428 3875 4428 3144 
Q 4428 2409 3951 2014 
Q 3475 1619 2584 1619 
L 1791 1619 
L 1791 0 
L 588 0 
L 588 4666 
z
M 1791 3794 
L 1791 2491 
L 2456 2491 
Q 2806 2491 2997 2661 
Q 3188 2831 3188 3144 
Q 3188 3456 2997 3625 
Q 2806 3794 2456 3794 
L 1791 3794 
z
" transform="scale(0.015625)"/>
        <path id="DejaVuSans-Bold-79" d="M 78 3500 
L 1197 3500 
L 2138 1125 
L 2938 3500 
L 4056 3500 
L 2584 -331 
Q 2363 -916 2067 -1148 
Q 1772 -1381 1288 -1381 
L 641 -1381 
L 641 -647 
L 991 -647 
Q 1275 -647 1404 -556 
Q 1534 -466 1606 -231 
L 1638 -134 
L 78 3500 
z
" transform="scale(0.015625)"/>
        <path id="DejaVuSans-Bold-6e" d="M 4056 2131 
L 4056 0 
L 2931 0 
L 2931 347 
L 2931 1631 
Q 2931 2084 2911 2256 
Q 2891 2428 2841 2509 
Q 2775 2619 2662 2680 
Q 2550 2741 2406 2741 
Q 2056 2741 1856 2470 
Q 1656 2200 1656 1722 
L 1656 0 
L 538 0 
L 538 3500 
L 1656 3500 
L 1656 2988 
Q 1909 3294 2193 3439 
Q 2478 3584 2822 3584 
Q 3428 3584 3742 3212 
Q 4056 2841 4056 2131 
z
" transform="scale(0.015625)"/>
        <path id="DejaVuSans-Bold-2d" d="M 347 2297 
L 2309 2297 
L 2309 1388 
L 347 1388 
L 347 2297 
z
" transform="scale(0.015625)"/>
        <path id="DejaVuSans-Bold-6c" d="M 538 4863 
L 1656 4863 
L 1656 0 
L 538 0 
L 538 4863 
z
" transform="scale(0.015625)"/>
        <path id="DejaVuSans-Bold-69" d="M 538 3500 
L 1656 3500 
L 1656 0 
L 538 0 
L 538 3500 
z
M 538 4863 
L 1656 4863 
L 1656 3950 
L 538 3950 
L 538 4863 
z
" transform="scale(0.015625)"/>
        <path id="DejaVuSans-Bold-65" d="M 4031 1759 
L 4031 1441 
L 1416 1441 
Q 1456 1047 1700 850 
Q 1944 653 2381 653 
Q 2734 653 3104 758 
Q 3475 863 3866 1075 
L 3866 213 
Q 3469 63 3072 -14 
Q 2675 -91 2278 -91 
Q 1328 -91 801 392 
Q 275 875 275 1747 
Q 275 2603 792 3093 
Q 1309 3584 2216 3584 
Q 3041 3584 3536 3087 
Q 4031 2591 4031 1759 
z
M 2881 2131 
Q 2881 2450 2695 2645 
Q 2509 2841 2209 2841 
Q 1884 2841 1681 2658 
Q 1478 2475 1428 2131 
L 2881 2131 
z
" transform="scale(0.015625)"/>
       </defs>
       <use xlink:href="#DejaVuSans-Bold-50"/>
       <use xlink:href="#DejaVuSans-Bold-79" transform="translate(75.166016 0)"/>
       <use xlink:href="#DejaVuSans-Bold-6e" transform="translate(140.351562 0)"/>
       <use xlink:href="#DejaVuSans-Bold-2d" transform="translate(211.542969 0)"/>
       <use xlink:href="#DejaVuSans-Bold-6c" transform="translate(253.046875 0)"/>
       <use xlink:href="#DejaVuSans-Bold-69" transform="translate(287.324219 0)"/>
       <use xlink:href="#DejaVuSans-Bold-6e" transform="translate(321.601562 0)"/>
       <use xlink:href="#DejaVuSans-Bold-65" transform="translate(392.792969 0)"/>
      </g>
     </g>
    </g>
    <g id="xtick_2">
     <g id="line2d_2">
      <path d="M 307.52 267.76 
L 420.24 72.523233 
" clip-path="url(#pdfd3ee0c8c)" style="fill: none; stroke: #b0b0b0; stroke-width: 0.8; stroke-linecap: square"/>
     </g>
     <g id="text_2">
      <!-- Pyn-branch -->
      <g transform="translate(385.439922 63.935284) scale(0.13 -0.13)">
       <defs>
        <path id="DejaVuSans-Bold-62" d="M 2400 722 
Q 2759 722 2948 984 
Q 3138 1247 3138 1747 
Q 3138 2247 2948 2509 
Q 2759 2772 2400 2772 
Q 2041 2772 1848 2508 
Q 1656 2244 1656 1747 
Q 1656 1250 1848 986 
Q 2041 722 2400 722 
z
M 1656 2988 
Q 1888 3294 2169 3439 
Q 2450 3584 2816 3584 
Q 3463 3584 3878 3070 
Q 4294 2556 4294 1747 
Q 4294 938 3878 423 
Q 3463 -91 2816 -91 
Q 2450 -91 2169 54 
Q 1888 200 1656 506 
L 1656 0 
L 538 0 
L 538 4863 
L 1656 4863 
L 1656 2988 
z
" transform="scale(0.015625)"/>
        <path id="DejaVuSans-Bold-72" d="M 3138 2547 
Q 2991 2616 2845 2648 
Q 2700 2681 2553 2681 
Q 2122 2681 1889 2404 
Q 1656 2128 1656 1613 
L 1656 0 
L 538 0 
L 538 3500 
L 1656 3500 
L 1656 2925 
Q 1872 3269 2151 3426 
Q 2431 3584 2822 3584 
Q 2878 3584 2943 3579 
Q 3009 3575 3134 3559 
L 3138 2547 
z
" transform="scale(0.015625)"/>
        <path id="DejaVuSans-Bold-61" d="M 2106 1575 
Q 1756 1575 1579 1456 
Q 1403 1338 1403 1106 
Q 1403 894 1545 773 
Q 1688 653 1941 653 
Q 2256 653 2472 879 
Q 2688 1106 2688 1447 
L 2688 1575 
L 2106 1575 
z
M 3816 1997 
L 3816 0 
L 2688 0 
L 2688 519 
Q 2463 200 2181 54 
Q 1900 -91 1497 -91 
Q 953 -91 614 226 
Q 275 544 275 1050 
Q 275 1666 698 1953 
Q 1122 2241 2028 2241 
L 2688 2241 
L 2688 2328 
Q 2688 2594 2478 2717 
Q 2269 2841 1825 2841 
Q 1466 2841 1156 2769 
Q 847 2697 581 2553 
L 581 3406 
Q 941 3494 1303 3539 
Q 1666 3584 2028 3584 
Q 2975 3584 3395 3211 
Q 3816 2838 3816 1997 
z
" transform="scale(0.015625)"/>
        <path id="DejaVuSans-Bold-63" d="M 3366 3391 
L 3366 2478 
Q 3138 2634 2908 2709 
Q 2678 2784 2431 2784 
Q 1963 2784 1702 2511 
Q 1441 2238 1441 1747 
Q 1441 1256 1702 982 
Q 1963 709 2431 709 
Q 2694 709 2930 787 
Q 3166 866 3366 1019 
L 3366 103 
Q 3103 6 2833 -42 
Q 2563 -91 2291 -91 
Q 1344 -91 809 395 
Q 275 881 275 1747 
Q 275 2613 809 3098 
Q 1344 3584 2291 3584 
Q 2566 3584 2833 3536 
Q 3100 3488 3366 3391 
z
" transform="scale(0.015625)"/>
        <path id="DejaVuSans-Bold-68" d="M 4056 2131 
L 4056 0 
L 2931 0 
L 2931 347 
L 2931 1625 
Q 2931 2084 2911 2256 
Q 2891 2428 2841 2509 
Q 2775 2619 2662 2680 
Q 2550 2741 2406 2741 
Q 2056 2741 1856 2470 
Q 1656 2200 1656 1722 
L 1656 0 
L 538 0 
L 538 4863 
L 1656 4863 
L 1656 2988 
Q 1909 3294 2193 3439 
Q 2478 3584 2822 3584 
Q 3428 3584 3742 3212 
Q 4056 2841 4056 2131 
z
" transform="scale(0.015625)"/>
       </defs>
       <use xlink:href="#DejaVuSans-Bold-50"/>
       <use xlink:href="#DejaVuSans-Bold-79" transform="translate(75.166016 0)"/>
       <use xlink:href="#DejaVuSans-Bold-6e" transform="translate(140.351562 0)"/>
       <use xlink:href="#DejaVuSans-Bold-2d" transform="translate(211.542969 0)"/>
       <use xlink:href="#DejaVuSans-Bold-62" transform="translate(253.046875 0)"/>
       <use xlink:href="#DejaVuSans-Bold-72" transform="translate(324.628906 0)"/>
       <use xlink:href="#DejaVuSans-Bold-61" transform="translate(373.945312 0)"/>
       <use xlink:href="#DejaVuSans-Bold-6e" transform="translate(441.425781 0)"/>
       <use xlink:href="#DejaVuSans-Bold-63" transform="translate(512.617188 0)"/>
       <use xlink:href="#DejaVuSans-Bold-68" transform="translate(571.894531 0)"/>
      </g>
     </g>
    </g>
    <g id="xtick_3">
     <g id="line2d_3">
      <path d="M 307.52 267.76 
L 194.8 72.523233 
" clip-path="url(#pdfd3ee0c8c)" style="fill: none; stroke: #b0b0b0; stroke-width: 0.8; stroke-linecap: square"/>
     </g>
     <g id="text_3">
      <!-- NA-line -->
      <g transform="translate(161.139844 63.986065) scale(0.13 -0.13)">
       <defs>
        <path id="DejaVuSans-Bold-4e" d="M 588 4666 
L 1931 4666 
L 3628 1466 
L 3628 4666 
L 4769 4666 
L 4769 0 
L 3425 0 
L 1728 3200 
L 1728 0 
L 588 0 
L 588 4666 
z
" transform="scale(0.015625)"/>
        <path id="DejaVuSans-Bold-41" d="M 3419 850 
L 1538 850 
L 1241 0 
L 31 0 
L 1759 4666 
L 3194 4666 
L 4922 0 
L 3713 0 
L 3419 850 
z
M 1838 1716 
L 3116 1716 
L 2478 3572 
L 1838 1716 
z
" transform="scale(0.015625)"/>
       </defs>
       <use xlink:href="#DejaVuSans-Bold-4e"/>
       <use xlink:href="#DejaVuSans-Bold-41" transform="translate(83.691406 0)"/>
       <use xlink:href="#DejaVuSans-Bold-2d" transform="translate(161.083984 0)"/>
       <use xlink:href="#DejaVuSans-Bold-6c" transform="translate(202.587891 0)"/>
       <use xlink:href="#DejaVuSans-Bold-69" transform="translate(236.865234 0)"/>
       <use xlink:href="#DejaVuSans-Bold-6e" transform="translate(271.142578 0)"/>
       <use xlink:href="#DejaVuSans-Bold-65" transform="translate(342.333984 0)"/>
      </g>
     </g>
    </g>
    <g id="xtick_4">
     <g id="line2d_4">
      <path d="M 307.52 267.76 
L 82.08 267.76 
" clip-path="url(#pdfd3ee0c8c)" style="fill: none; stroke: #b0b0b0; stroke-width: 0.8; stroke-linecap: square"/>
     </g>
     <g id="text_4">
      <!-- NA-branch -->
      <g transform="translate(29.560391 271.347188) scale(0.13 -0.13)">
       <use xlink:href="#DejaVuSans-Bold-4e"/>
       <use xlink:href="#DejaVuSans-Bold-41" transform="translate(83.691406 0)"/>
       <use xlink:href="#DejaVuSans-Bold-2d" transform="translate(161.083984 0)"/>
       <use xlink:href="#DejaVuSans-Bold-62" transform="translate(202.587891 0)"/>
       <use xlink:href="#DejaVuSans-Bold-72" transform="translate(274.169922 0)"/>
       <use xlink:href="#DejaVuSans-Bold-61" transform="translate(323.486328 0)"/>
       <use xlink:href="#DejaVuSans-Bold-6e" transform="translate(390.966797 0)"/>
       <use xlink:href="#DejaVuSans-Bold-63" transform="translate(462.158203 0)"/>
       <use xlink:href="#DejaVuSans-Bold-68" transform="translate(521.435547 0)"/>
      </g>
     </g>
    </g>
    <g id="xtick_5">
     <g id="line2d_5">
      <path d="M 307.52 267.76 
L 194.8 462.996767 
" clip-path="url(#pdfd3ee0c8c)" style="fill: none; stroke: #b0b0b0; stroke-width: 0.8; stroke-linecap: square"/>
     </g>
     <g id="text_5">
      <!-- total-line -->
      <g transform="translate(154.315859 478.70831) scale(0.13 -0.13)">
       <defs>
        <path id="DejaVuSans-Bold-74" d="M 1759 4494 
L 1759 3500 
L 2913 3500 
L 2913 2700 
L 1759 2700 
L 1759 1216 
Q 1759 972 1856 886 
Q 1953 800 2241 800 
L 2816 800 
L 2816 0 
L 1856 0 
Q 1194 0 917 276 
Q 641 553 641 1216 
L 641 2700 
L 84 2700 
L 84 3500 
L 641 3500 
L 641 4494 
L 1759 4494 
z
" transform="scale(0.015625)"/>
        <path id="DejaVuSans-Bold-6f" d="M 2203 2784 
Q 1831 2784 1636 2517 
Q 1441 2250 1441 1747 
Q 1441 1244 1636 976 
Q 1831 709 2203 709 
Q 2569 709 2762 976 
Q 2956 1244 2956 1747 
Q 2956 2250 2762 2517 
Q 2569 2784 2203 2784 
z
M 2203 3584 
Q 3106 3584 3614 3096 
Q 4122 2609 4122 1747 
Q 4122 884 3614 396 
Q 3106 -91 2203 -91 
Q 1297 -91 786 396 
Q 275 884 275 1747 
Q 275 2609 786 3096 
Q 1297 3584 2203 3584 
z
" transform="scale(0.015625)"/>
       </defs>
       <use xlink:href="#DejaVuSans-Bold-74"/>
       <use xlink:href="#DejaVuSans-Bold-6f" transform="translate(47.802734 0)"/>
       <use xlink:href="#DejaVuSans-Bold-74" transform="translate(116.503906 0)"/>
       <use xlink:href="#DejaVuSans-Bold-61" transform="translate(164.306641 0)"/>
       <use xlink:href="#DejaVuSans-Bold-6c" transform="translate(231.787109 0)"/>
       <use xlink:href="#DejaVuSans-Bold-2d" transform="translate(266.064453 0)"/>
       <use xlink:href="#DejaVuSans-Bold-6c" transform="translate(307.568359 0)"/>
       <use xlink:href="#DejaVuSans-Bold-69" transform="translate(341.845703 0)"/>
       <use xlink:href="#DejaVuSans-Bold-6e" transform="translate(376.123047 0)"/>
       <use xlink:href="#DejaVuSans-Bold-65" transform="translate(447.314453 0)"/>
      </g>
     </g>
    </g>
    <g id="xtick_6">
     <g id="line2d_6">
      <path d="M 307.52 267.76 
L 420.24 462.996767 
" clip-path="url(#pdfd3ee0c8c)" style="fill: none; stroke: #b0b0b0; stroke-width: 0.8; stroke-linecap: square"/>
     </g>
     <g id="text_6">
      <!-- total-branch -->
      <g transform="translate(381.896406 478.70831) scale(0.13 -0.13)">
       <use xlink:href="#DejaVuSans-Bold-74"/>
       <use xlink:href="#DejaVuSans-Bold-6f" transform="translate(47.802734 0)"/>
       <use xlink:href="#DejaVuSans-Bold-74" transform="translate(116.503906 0)"/>
       <use xlink:href="#DejaVuSans-Bold-61" transform="translate(164.306641 0)"/>
       <use xlink:href="#DejaVuSans-Bold-6c" transform="translate(231.787109 0)"/>
       <use xlink:href="#DejaVuSans-Bold-2d" transform="translate(266.064453 0)"/>
       <use xlink:href="#DejaVuSans-Bold-62" transform="translate(307.568359 0)"/>
       <use xlink:href="#DejaVuSans-Bold-72" transform="translate(379.150391 0)"/>
       <use xlink:href="#DejaVuSans-Bold-61" transform="translate(428.466797 0)"/>
       <use xlink:href="#DejaVuSans-Bold-6e" transform="translate(495.947266 0)"/>
       <use xlink:href="#DejaVuSans-Bold-63" transform="translate(567.138672 0)"/>
       <use xlink:href="#DejaVuSans-Bold-68" transform="translate(626.416016 0)"/>
      </g>
     </g>
    </g>
   </g>
   <g id="matplotlib.axis_2">
    <g id="ytick_1">
     <g id="line2d_7">
      <path d="M 307.52 267.76 
C 307.52 267.76 307.52 267.76 307.52 267.76 
C 307.52 267.76 307.52 267.76 307.52 267.76 
C 307.52 267.76 307.52 267.76 307.52 267.76 
C 307.52 267.76 307.52 267.76 307.52 267.76 
C 307.52 267.76 307.52 267.76 307.52 267.76 
C 307.52 267.76 307.52 267.76 307.52 267.76 
C 307.52 267.76 307.52 267.76 307.52 267.76 
C 307.52 267.76 307.52 267.76 307.52 267.76 
C 307.52 267.76 307.52 267.76 307.52 267.76 
C 307.52 267.76 307.52 267.76 307.52 267.76 
C 307.52 267.76 307.52 267.76 307.52 267.76 
C 307.52 267.76 307.52 267.76 307.52 267.76 
C 307.52 267.76 307.52 267.76 307.52 267.76 
C 307.52 267.76 307.52 267.76 307.52 267.76 
C 307.52 267.76 307.52 267.76 307.52 267.76 
C 307.52 267.76 307.52 267.76 307.52 267.76 
" clip-path="url(#pdfd3ee0c8c)" style="fill: none; stroke: #b0b0b0; stroke-width: 0.8; stroke-linecap: square"/>
     </g>
     <g id="text_7">
      <!-- 0.5 -->
      <g transform="translate(307.52 265.680313) scale(0.1 -0.1)">
       <defs>
        <path id="DejaVuSans-30" d="M 2034 4250 
Q 1547 4250 1301 3770 
Q 1056 3291 1056 2328 
Q 1056 1369 1301 889 
Q 1547 409 2034 409 
Q 2525 409 2770 889 
Q 3016 1369 3016 2328 
Q 3016 3291 2770 3770 
Q 2525 4250 2034 4250 
z
M 2034 4750 
Q 2819 4750 3233 4129 
Q 3647 3509 3647 2328 
Q 3647 1150 3233 529 
Q 2819 -91 2034 -91 
Q 1250 -91 836 529 
Q 422 1150 422 2328 
Q 422 3509 836 4129 
Q 1250 4750 2034 4750 
z
" transform="scale(0.015625)"/>
        <path id="DejaVuSans-2e" d="M 684 794 
L 1344 794 
L 1344 0 
L 684 0 
L 684 794 
z
" transform="scale(0.015625)"/>
        <path id="DejaVuSans-35" d="M 691 4666 
L 3169 4666 
L 3169 4134 
L 1269 4134 
L 1269 2991 
Q 1406 3038 1543 3061 
Q 1681 3084 1819 3084 
Q 2600 3084 3056 2656 
Q 3513 2228 3513 1497 
Q 3513 744 3044 326 
Q 2575 -91 1722 -91 
Q 1428 -91 1123 -41 
Q 819 9 494 109 
L 494 744 
Q 775 591 1075 516 
Q 1375 441 1709 441 
Q 2250 441 2565 725 
Q 2881 1009 2881 1497 
Q 2881 1984 2565 2268 
Q 2250 2553 1709 2553 
Q 1456 2553 1204 2497 
Q 953 2441 691 2322 
L 691 4666 
z
" transform="scale(0.015625)"/>
       </defs>
       <use xlink:href="#DejaVuSans-30"/>
       <use xlink:href="#DejaVuSans-2e" transform="translate(63.623047 0)"/>
       <use xlink:href="#DejaVuSans-35" transform="translate(95.410156 0)"/>
      </g>
     </g>
    </g>
    <g id="ytick_2">
     <g id="line2d_8">
      <path d="M 363.88 267.76 
C 363.88 260.358873 362.422139 253.029712 359.58985 246.191962 
C 356.757562 239.354212 352.605926 233.140849 347.372538 227.907462 
C 342.139151 222.674074 335.925788 218.522438 329.088038 215.69015 
C 322.250288 212.857861 314.921127 211.4 307.52 211.4 
C 300.118873 211.4 292.789712 212.857861 285.951962 215.69015 
C 279.114212 218.522438 272.900849 222.674074 267.667462 227.907462 
C 262.434074 233.140849 258.282438 239.354212 255.45015 246.191962 
C 252.617861 253.029712 251.16 260.358873 251.16 267.76 
C 251.16 275.161127 252.617861 282.490288 255.45015 289.328038 
C 258.282438 296.165788 262.434074 302.379151 267.667462 307.612538 
C 272.900849 312.845926 279.114212 316.997562 285.951962 319.82985 
C 292.789712 322.662139 300.118873 324.12 307.52 324.12 
C 314.921127 324.12 322.250288 322.662139 329.088038 319.82985 
C 335.925788 316.997562 342.139151 312.845926 347.372538 307.612538 
C 352.605926 302.379151 356.757562 296.165788 359.58985 289.328038 
C 362.422139 282.490288 363.88 275.161127 363.88 267.76 
" clip-path="url(#pdfd3ee0c8c)" style="fill: none; stroke: #b0b0b0; stroke-width: 0.8; stroke-linecap: square"/>
     </g>
     <g id="text_8">
      <!-- 0.6 -->
      <g transform="translate(359.58985 244.112274) scale(0.1 -0.1)">
       <defs>
        <path id="DejaVuSans-36" d="M 2113 2584 
Q 1688 2584 1439 2293 
Q 1191 2003 1191 1497 
Q 1191 994 1439 701 
Q 1688 409 2113 409 
Q 2538 409 2786 701 
Q 3034 994 3034 1497 
Q 3034 2003 2786 2293 
Q 2538 2584 2113 2584 
z
M 3366 4563 
L 3366 3988 
Q 3128 4100 2886 4159 
Q 2644 4219 2406 4219 
Q 1781 4219 1451 3797 
Q 1122 3375 1075 2522 
Q 1259 2794 1537 2939 
Q 1816 3084 2150 3084 
Q 2853 3084 3261 2657 
Q 3669 2231 3669 1497 
Q 3669 778 3244 343 
Q 2819 -91 2113 -91 
Q 1303 -91 875 529 
Q 447 1150 447 2328 
Q 447 3434 972 4092 
Q 1497 4750 2381 4750 
Q 2619 4750 2861 4703 
Q 3103 4656 3366 4563 
z
" transform="scale(0.015625)"/>
       </defs>
       <use xlink:href="#DejaVuSans-30"/>
       <use xlink:href="#DejaVuSans-2e" transform="translate(63.623047 0)"/>
       <use xlink:href="#DejaVuSans-36" transform="translate(95.410156 0)"/>
      </g>
     </g>
    </g>
    <g id="ytick_3">
     <g id="line2d_9">
      <path d="M 420.24 267.76 
C 420.24 252.957745 417.324279 238.299424 411.659701 224.623924 
C 405.995123 210.948423 397.691851 198.521698 387.225076 188.054924 
C 376.758302 177.588149 364.331577 169.284877 350.656076 163.620299 
C 336.980576 157.955721 322.322255 155.04 307.52 155.04 
C 292.717745 155.04 278.059424 157.955721 264.383924 163.620299 
C 250.708423 169.284877 238.281698 177.588149 227.814924 188.054924 
C 217.348149 198.521698 209.044877 210.948423 203.380299 224.623924 
C 197.715721 238.299424 194.8 252.957745 194.8 267.76 
C 194.8 282.562255 197.715721 297.220576 203.380299 310.896076 
C 209.044877 324.571577 217.348149 336.998302 227.814924 347.465076 
C 238.281698 357.931851 250.708423 366.235123 264.383924 371.899701 
C 278.059424 377.564279 292.717745 380.48 307.52 380.48 
C 322.322255 380.48 336.980576 377.564279 350.656076 371.899701 
C 364.331577 366.235123 376.758302 357.931851 387.225076 347.465076 
C 397.691851 336.998302 405.995123 324.571577 411.659701 310.896076 
C 417.324279 297.220576 420.24 282.562255 420.24 267.76 
" clip-path="url(#pdfd3ee0c8c)" style="fill: none; stroke: #b0b0b0; stroke-width: 0.8; stroke-linecap: square"/>
     </g>
     <g id="text_9">
      <!-- 0.7 -->
      <g transform="translate(411.659701 222.544236) scale(0.1 -0.1)">
       <defs>
        <path id="DejaVuSans-37" d="M 525 4666 
L 3525 4666 
L 3525 4397 
L 1831 0 
L 1172 0 
L 2766 4134 
L 525 4134 
L 525 4666 
z
" transform="scale(0.015625)"/>
       </defs>
       <use xlink:href="#DejaVuSans-30"/>
       <use xlink:href="#DejaVuSans-2e" transform="translate(63.623047 0)"/>
       <use xlink:href="#DejaVuSans-37" transform="translate(95.410156 0)"/>
      </g>
     </g>
    </g>
    <g id="ytick_4">
     <g id="line2d_10">
      <path d="M 476.6 267.76 
C 476.6 245.556618 472.226418 223.569136 463.729551 203.055885 
C 455.232685 182.542635 442.777777 163.902548 427.077615 148.202385 
C 411.377452 132.502223 392.737365 120.047315 372.224115 111.550449 
C 351.710864 103.053582 329.723382 98.68 307.52 98.68 
C 285.316618 98.68 263.329136 103.053582 242.815885 111.550449 
C 222.302635 120.047315 203.662548 132.502223 187.962385 148.202385 
C 172.262223 163.902548 159.807315 182.542635 151.310449 203.055885 
C 142.813582 223.569136 138.44 245.556618 138.44 267.76 
C 138.44 289.963382 142.813582 311.950864 151.310449 332.464115 
C 159.807315 352.977365 172.262223 371.617452 187.962385 387.317615 
C 203.662548 403.017777 222.302635 415.472685 242.815885 423.969551 
C 263.329136 432.466418 285.316618 436.84 307.52 436.84 
C 329.723382 436.84 351.710864 432.466418 372.224115 423.969551 
C 392.737365 415.472685 411.377452 403.017777 427.077615 387.317615 
C 442.777777 371.617452 455.232685 352.977365 463.729551 332.464115 
C 472.226418 311.950864 476.6 289.963382 476.6 267.76 
" clip-path="url(#pdfd3ee0c8c)" style="fill: none; stroke: #b0b0b0; stroke-width: 0.8; stroke-linecap: square"/>
     </g>
     <g id="text_10">
      <!-- 0.8 -->
      <g transform="translate(463.729551 200.976198) scale(0.1 -0.1)">
       <defs>
        <path id="DejaVuSans-38" d="M 2034 2216 
Q 1584 2216 1326 1975 
Q 1069 1734 1069 1313 
Q 1069 891 1326 650 
Q 1584 409 2034 409 
Q 2484 409 2743 651 
Q 3003 894 3003 1313 
Q 3003 1734 2745 1975 
Q 2488 2216 2034 2216 
z
M 1403 2484 
Q 997 2584 770 2862 
Q 544 3141 544 3541 
Q 544 4100 942 4425 
Q 1341 4750 2034 4750 
Q 2731 4750 3128 4425 
Q 3525 4100 3525 3541 
Q 3525 3141 3298 2862 
Q 3072 2584 2669 2484 
Q 3125 2378 3379 2068 
Q 3634 1759 3634 1313 
Q 3634 634 3220 271 
Q 2806 -91 2034 -91 
Q 1263 -91 848 271 
Q 434 634 434 1313 
Q 434 1759 690 2068 
Q 947 2378 1403 2484 
z
M 1172 3481 
Q 1172 3119 1398 2916 
Q 1625 2713 2034 2713 
Q 2441 2713 2670 2916 
Q 2900 3119 2900 3481 
Q 2900 3844 2670 4047 
Q 2441 4250 2034 4250 
Q 1625 4250 1398 4047 
Q 1172 3844 1172 3481 
z
" transform="scale(0.015625)"/>
       </defs>
       <use xlink:href="#DejaVuSans-30"/>
       <use xlink:href="#DejaVuSans-2e" transform="translate(63.623047 0)"/>
       <use xlink:href="#DejaVuSans-38" transform="translate(95.410156 0)"/>
      </g>
     </g>
    </g>
   </g>
   <g id="line2d_11">
    <path d="M 519.453108 267.76 
L 388.018482 128.332539 
L 225.549188 125.782389 
L 224.396872 267.76 
L 208.710515 438.903047 
L 375.596974 385.672777 
L 519.453108 267.76 
" clip-path="url(#pdfd3ee0c8c)" style="fill: none; stroke: #1f77b4; stroke-width: 2; stroke-linecap: square"/>
   </g>
   <g id="line2d_12">
    <path d="M 514.629217 267.76 
L 384.109715 135.102723 
L 239.579947 150.084376 
L 267.847598 267.76 
L 214.587936 428.723056 
L 366.004423 369.057993 
L 514.629217 267.76 
" clip-path="url(#pdfd3ee0c8c)" style="fill: none; stroke: #ff7f0e; stroke-width: 2; stroke-linecap: square"/>
   </g>
   <g id="line2d_13">
    <path d="M 465.118081 267.76 
L 343.620785 205.231606 
L 249.058504 166.501719 
L 286.109497 267.76 
L 234.78692 393.737391 
L 335.519198 316.256034 
L 465.118081 267.76 
" clip-path="url(#pdfd3ee0c8c)" style="fill: none; stroke: #2ca02c; stroke-width: 2; stroke-linecap: square"/>
   </g>
   <g id="patch_6">
    <path d="M 532.96 267.76 
C 532.96 238.15549 527.128557 208.838847 515.799402 181.487847 
C 504.470246 154.136847 487.863702 129.283397 466.930153 108.349847 
C 445.996603 87.416298 421.143153 70.809754 393.792153 59.480598 
C 366.441153 48.151443 337.12451 42.32 307.52 42.32 
C 277.91549 42.32 248.598847 48.151443 221.247847 59.480598 
C 193.896847 70.809754 169.043397 87.416298 148.109847 108.349847 
C 127.176298 129.283397 110.569754 154.136847 99.240598 181.487847 
C 87.911443 208.838847 82.08 238.15549 82.08 267.76 
C 82.08 297.36451 87.911443 326.681153 99.240598 354.032153 
C 110.569754 381.383153 127.176298 406.236603 148.109847 427.170153 
C 169.043397 448.103702 193.896847 464.710246 221.247847 476.039402 
C 248.598847 487.368557 277.91549 493.2 307.52 493.2 
C 337.12451 493.2 366.441153 487.368557 393.792153 476.039402 
C 421.143153 464.710246 445.996603 448.103702 466.930153 427.170153 
C 487.863702 406.236603 504.470246 381.383153 515.799402 354.032153 
C 527.128557 326.681153 532.96 297.36451 532.96 267.76 
" style="fill: none; stroke: #000000; stroke-width: 0.8; stroke-linejoin: miter; stroke-linecap: square"/>
   </g>
   <g id="text_11">
    <!-- Test Coverage Comparison across Models -->
    <g transform="translate(120.77875 22.32) scale(0.16 -0.16)">
     <defs>
      <path id="DejaVuSans-Bold-54" d="M 31 4666 
L 4331 4666 
L 4331 3756 
L 2784 3756 
L 2784 0 
L 1581 0 
L 1581 3756 
L 31 3756 
L 31 4666 
z
" transform="scale(0.015625)"/>
      <path id="DejaVuSans-Bold-73" d="M 3272 3391 
L 3272 2541 
Q 2913 2691 2578 2766 
Q 2244 2841 1947 2841 
Q 1628 2841 1473 2761 
Q 1319 2681 1319 2516 
Q 1319 2381 1436 2309 
Q 1553 2238 1856 2203 
L 2053 2175 
Q 2913 2066 3209 1816 
Q 3506 1566 3506 1031 
Q 3506 472 3093 190 
Q 2681 -91 1863 -91 
Q 1516 -91 1145 -36 
Q 775 19 384 128 
L 384 978 
Q 719 816 1070 734 
Q 1422 653 1784 653 
Q 2113 653 2278 743 
Q 2444 834 2444 1013 
Q 2444 1163 2330 1236 
Q 2216 1309 1875 1350 
L 1678 1375 
Q 931 1469 631 1722 
Q 331 1975 331 2491 
Q 331 3047 712 3315 
Q 1094 3584 1881 3584 
Q 2191 3584 2531 3537 
Q 2872 3491 3272 3391 
z
" transform="scale(0.015625)"/>
      <path id="DejaVuSans-Bold-20" transform="scale(0.015625)"/>
      <path id="DejaVuSans-Bold-43" d="M 4288 256 
Q 3956 84 3597 -3 
Q 3238 -91 2847 -91 
Q 1681 -91 1000 561 
Q 319 1213 319 2328 
Q 319 3447 1000 4098 
Q 1681 4750 2847 4750 
Q 3238 4750 3597 4662 
Q 3956 4575 4288 4403 
L 4288 3438 
Q 3953 3666 3628 3772 
Q 3303 3878 2944 3878 
Q 2300 3878 1931 3465 
Q 1563 3053 1563 2328 
Q 1563 1606 1931 1193 
Q 2300 781 2944 781 
Q 3303 781 3628 887 
Q 3953 994 4288 1222 
L 4288 256 
z
" transform="scale(0.015625)"/>
      <path id="DejaVuSans-Bold-76" d="M 97 3500 
L 1216 3500 
L 2088 1081 
L 2956 3500 
L 4078 3500 
L 2700 0 
L 1472 0 
L 97 3500 
z
" transform="scale(0.015625)"/>
      <path id="DejaVuSans-Bold-67" d="M 2919 594 
Q 2688 288 2409 144 
Q 2131 0 1766 0 
Q 1125 0 706 504 
Q 288 1009 288 1791 
Q 288 2575 706 3076 
Q 1125 3578 1766 3578 
Q 2131 3578 2409 3434 
Q 2688 3291 2919 2981 
L 2919 3500 
L 4044 3500 
L 4044 353 
Q 4044 -491 3511 -936 
Q 2978 -1381 1966 -1381 
Q 1638 -1381 1331 -1331 
Q 1025 -1281 716 -1178 
L 716 -306 
Q 1009 -475 1290 -558 
Q 1572 -641 1856 -641 
Q 2406 -641 2662 -400 
Q 2919 -159 2919 353 
L 2919 594 
z
M 2181 2772 
Q 1834 2772 1640 2515 
Q 1447 2259 1447 1791 
Q 1447 1309 1634 1061 
Q 1822 813 2181 813 
Q 2531 813 2725 1069 
Q 2919 1325 2919 1791 
Q 2919 2259 2725 2515 
Q 2531 2772 2181 2772 
z
" transform="scale(0.015625)"/>
      <path id="DejaVuSans-Bold-6d" d="M 3781 2919 
Q 3994 3244 4286 3414 
Q 4578 3584 4928 3584 
Q 5531 3584 5847 3212 
Q 6163 2841 6163 2131 
L 6163 0 
L 5038 0 
L 5038 1825 
Q 5041 1866 5042 1909 
Q 5044 1953 5044 2034 
Q 5044 2406 4934 2573 
Q 4825 2741 4581 2741 
Q 4263 2741 4089 2478 
Q 3916 2216 3909 1719 
L 3909 0 
L 2784 0 
L 2784 1825 
Q 2784 2406 2684 2573 
Q 2584 2741 2328 2741 
Q 2006 2741 1831 2477 
Q 1656 2213 1656 1722 
L 1656 0 
L 531 0 
L 531 3500 
L 1656 3500 
L 1656 2988 
Q 1863 3284 2130 3434 
Q 2397 3584 2719 3584 
Q 3081 3584 3359 3409 
Q 3638 3234 3781 2919 
z
" transform="scale(0.015625)"/>
      <path id="DejaVuSans-Bold-70" d="M 1656 506 
L 1656 -1331 
L 538 -1331 
L 538 3500 
L 1656 3500 
L 1656 2988 
Q 1888 3294 2169 3439 
Q 2450 3584 2816 3584 
Q 3463 3584 3878 3070 
Q 4294 2556 4294 1747 
Q 4294 938 3878 423 
Q 3463 -91 2816 -91 
Q 2450 -91 2169 54 
Q 1888 200 1656 506 
z
M 2400 2772 
Q 2041 2772 1848 2508 
Q 1656 2244 1656 1747 
Q 1656 1250 1848 986 
Q 2041 722 2400 722 
Q 2759 722 2948 984 
Q 3138 1247 3138 1747 
Q 3138 2247 2948 2509 
Q 2759 2772 2400 2772 
z
" transform="scale(0.015625)"/>
      <path id="DejaVuSans-Bold-4d" d="M 588 4666 
L 2119 4666 
L 3181 2169 
L 4250 4666 
L 5778 4666 
L 5778 0 
L 4641 0 
L 4641 3413 
L 3566 897 
L 2803 897 
L 1728 3413 
L 1728 0 
L 588 0 
L 588 4666 
z
" transform="scale(0.015625)"/>
      <path id="DejaVuSans-Bold-64" d="M 2919 2988 
L 2919 4863 
L 4044 4863 
L 4044 0 
L 2919 0 
L 2919 506 
Q 2688 197 2409 53 
Q 2131 -91 1766 -91 
Q 1119 -91 703 423 
Q 288 938 288 1747 
Q 288 2556 703 3070 
Q 1119 3584 1766 3584 
Q 2128 3584 2408 3439 
Q 2688 3294 2919 2988 
z
M 2181 722 
Q 2541 722 2730 984 
Q 2919 1247 2919 1747 
Q 2919 2247 2730 2509 
Q 2541 2772 2181 2772 
Q 1825 2772 1636 2509 
Q 1447 2247 1447 1747 
Q 1447 1247 1636 984 
Q 1825 722 2181 722 
z
" transform="scale(0.015625)"/>
     </defs>
     <use xlink:href="#DejaVuSans-Bold-54"/>
     <use xlink:href="#DejaVuSans-Bold-65" transform="translate(54.962891 0)"/>
     <use xlink:href="#DejaVuSans-Bold-73" transform="translate(122.785156 0)"/>
     <use xlink:href="#DejaVuSans-Bold-74" transform="translate(182.306641 0)"/>
     <use xlink:href="#DejaVuSans-Bold-20" transform="translate(230.109375 0)"/>
     <use xlink:href="#DejaVuSans-Bold-43" transform="translate(264.923828 0)"/>
     <use xlink:href="#DejaVuSans-Bold-6f" transform="translate(338.3125 0)"/>
     <use xlink:href="#DejaVuSans-Bold-76" transform="translate(407.013672 0)"/>
     <use xlink:href="#DejaVuSans-Bold-65" transform="translate(472.199219 0)"/>
     <use xlink:href="#DejaVuSans-Bold-72" transform="translate(540.021484 0)"/>
     <use xlink:href="#DejaVuSans-Bold-61" transform="translate(589.337891 0)"/>
     <use xlink:href="#DejaVuSans-Bold-67" transform="translate(656.818359 0)"/>
     <use xlink:href="#DejaVuSans-Bold-65" transform="translate(728.400391 0)"/>
     <use xlink:href="#DejaVuSans-Bold-20" transform="translate(796.222656 0)"/>
     <use xlink:href="#DejaVuSans-Bold-43" transform="translate(831.037109 0)"/>
     <use xlink:href="#DejaVuSans-Bold-6f" transform="translate(904.425781 0)"/>
     <use xlink:href="#DejaVuSans-Bold-6d" transform="translate(973.126953 0)"/>
     <use xlink:href="#DejaVuSans-Bold-70" transform="translate(1077.326172 0)"/>
     <use xlink:href="#DejaVuSans-Bold-61" transform="translate(1148.908203 0)"/>
     <use xlink:href="#DejaVuSans-Bold-72" transform="translate(1216.388672 0)"/>
     <use xlink:href="#DejaVuSans-Bold-69" transform="translate(1265.705078 0)"/>
     <use xlink:href="#DejaVuSans-Bold-73" transform="translate(1299.982422 0)"/>
     <use xlink:href="#DejaVuSans-Bold-6f" transform="translate(1359.503906 0)"/>
     <use xlink:href="#DejaVuSans-Bold-6e" transform="translate(1428.205078 0)"/>
     <use xlink:href="#DejaVuSans-Bold-20" transform="translate(1499.396484 0)"/>
     <use xlink:href="#DejaVuSans-Bold-61" transform="translate(1534.210938 0)"/>
     <use xlink:href="#DejaVuSans-Bold-63" transform="translate(1601.691406 0)"/>
     <use xlink:href="#DejaVuSans-Bold-72" transform="translate(1660.96875 0)"/>
     <use xlink:href="#DejaVuSans-Bold-6f" transform="translate(1710.285156 0)"/>
     <use xlink:href="#DejaVuSans-Bold-73" transform="translate(1778.986328 0)"/>
     <use xlink:href="#DejaVuSans-Bold-73" transform="translate(1838.507812 0)"/>
     <use xlink:href="#DejaVuSans-Bold-20" transform="translate(1898.029297 0)"/>
     <use xlink:href="#DejaVuSans-Bold-4d" transform="translate(1932.84375 0)"/>
     <use xlink:href="#DejaVuSans-Bold-6f" transform="translate(2032.355469 0)"/>
     <use xlink:href="#DejaVuSans-Bold-64" transform="translate(2101.056641 0)"/>
     <use xlink:href="#DejaVuSans-Bold-65" transform="translate(2172.638672 0)"/>
     <use xlink:href="#DejaVuSans-Bold-6c" transform="translate(2240.460938 0)"/>
     <use xlink:href="#DejaVuSans-Bold-73" transform="translate(2274.738281 0)"/>
    </g>
   </g>
   <g id="legend_1">
    <g id="patch_7">
     <path d="M 523.446875 92.624125 
L 635.88 92.624125 
Q 638.68 92.624125 638.68 89.824125 
L 638.68 29.576 
Q 638.68 26.776 635.88 26.776 
L 523.446875 26.776 
Q 520.646875 26.776 520.646875 29.576 
L 520.646875 89.824125 
Q 520.646875 92.624125 523.446875 92.624125 
z
" style="fill: #ffffff; opacity: 0.8; stroke: #cccccc; stroke-linejoin: miter"/>
    </g>
    <g id="line2d_14">
     <path d="M 526.246875 38.113813 
L 540.246875 38.113813 
L 554.246875 38.113813 
" style="fill: none; stroke: #1f77b4; stroke-width: 2; stroke-linecap: square"/>
    </g>
    <g id="text_12">
     <!-- deepseek -->
     <g transform="translate(565.446875 43.013813) scale(0.14 -0.14)">
      <defs>
       <path id="DejaVuSans-64" d="M 2906 2969 
L 2906 4863 
L 3481 4863 
L 3481 0 
L 2906 0 
L 2906 525 
Q 2725 213 2448 61 
Q 2172 -91 1784 -91 
Q 1150 -91 751 415 
Q 353 922 353 1747 
Q 353 2572 751 3078 
Q 1150 3584 1784 3584 
Q 2172 3584 2448 3432 
Q 2725 3281 2906 2969 
z
M 947 1747 
Q 947 1113 1208 752 
Q 1469 391 1925 391 
Q 2381 391 2643 752 
Q 2906 1113 2906 1747 
Q 2906 2381 2643 2742 
Q 2381 3103 1925 3103 
Q 1469 3103 1208 2742 
Q 947 2381 947 1747 
z
" transform="scale(0.015625)"/>
       <path id="DejaVuSans-65" d="M 3597 1894 
L 3597 1613 
L 953 1613 
Q 991 1019 1311 708 
Q 1631 397 2203 397 
Q 2534 397 2845 478 
Q 3156 559 3463 722 
L 3463 178 
Q 3153 47 2828 -22 
Q 2503 -91 2169 -91 
Q 1331 -91 842 396 
Q 353 884 353 1716 
Q 353 2575 817 3079 
Q 1281 3584 2069 3584 
Q 2775 3584 3186 3129 
Q 3597 2675 3597 1894 
z
M 3022 2063 
Q 3016 2534 2758 2815 
Q 2500 3097 2075 3097 
Q 1594 3097 1305 2825 
Q 1016 2553 972 2059 
L 3022 2063 
z
" transform="scale(0.015625)"/>
       <path id="DejaVuSans-70" d="M 1159 525 
L 1159 -1331 
L 581 -1331 
L 581 3500 
L 1159 3500 
L 1159 2969 
Q 1341 3281 1617 3432 
Q 1894 3584 2278 3584 
Q 2916 3584 3314 3078 
Q 3713 2572 3713 1747 
Q 3713 922 3314 415 
Q 2916 -91 2278 -91 
Q 1894 -91 1617 61 
Q 1341 213 1159 525 
z
M 3116 1747 
Q 3116 2381 2855 2742 
Q 2594 3103 2138 3103 
Q 1681 3103 1420 2742 
Q 1159 2381 1159 1747 
Q 1159 1113 1420 752 
Q 1681 391 2138 391 
Q 2594 391 2855 752 
Q 3116 1113 3116 1747 
z
" transform="scale(0.015625)"/>
       <path id="DejaVuSans-73" d="M 2834 3397 
L 2834 2853 
Q 2591 2978 2328 3040 
Q 2066 3103 1784 3103 
Q 1356 3103 1142 2972 
Q 928 2841 928 2578 
Q 928 2378 1081 2264 
Q 1234 2150 1697 2047 
L 1894 2003 
Q 2506 1872 2764 1633 
Q 3022 1394 3022 966 
Q 3022 478 2636 193 
Q 2250 -91 1575 -91 
Q 1294 -91 989 -36 
Q 684 19 347 128 
L 347 722 
Q 666 556 975 473 
Q 1284 391 1588 391 
Q 1994 391 2212 530 
Q 2431 669 2431 922 
Q 2431 1156 2273 1281 
Q 2116 1406 1581 1522 
L 1381 1569 
Q 847 1681 609 1914 
Q 372 2147 372 2553 
Q 372 3047 722 3315 
Q 1072 3584 1716 3584 
Q 2034 3584 2315 3537 
Q 2597 3491 2834 3397 
z
" transform="scale(0.015625)"/>
       <path id="DejaVuSans-6b" d="M 581 4863 
L 1159 4863 
L 1159 1991 
L 2875 3500 
L 3609 3500 
L 1753 1863 
L 3688 0 
L 2938 0 
L 1159 1709 
L 1159 0 
L 581 0 
L 581 4863 
z
" transform="scale(0.015625)"/>
      </defs>
      <use xlink:href="#DejaVuSans-64"/>
      <use xlink:href="#DejaVuSans-65" transform="translate(63.476562 0)"/>
      <use xlink:href="#DejaVuSans-65" transform="translate(125 0)"/>
      <use xlink:href="#DejaVuSans-70" transform="translate(186.523438 0)"/>
      <use xlink:href="#DejaVuSans-73" transform="translate(250 0)"/>
      <use xlink:href="#DejaVuSans-65" transform="translate(302.099609 0)"/>
      <use xlink:href="#DejaVuSans-65" transform="translate(363.623047 0)"/>
      <use xlink:href="#DejaVuSans-6b" transform="translate(425.146484 0)"/>
     </g>
    </g>
    <g id="line2d_15">
     <path d="M 526.246875 58.663188 
L 540.246875 58.663188 
L 554.246875 58.663188 
" style="fill: none; stroke: #ff7f0e; stroke-width: 2; stroke-linecap: square"/>
    </g>
    <g id="text_13">
     <!-- gpt-4o -->
     <g transform="translate(565.446875 63.563188) scale(0.14 -0.14)">
      <defs>
       <path id="DejaVuSans-67" d="M 2906 1791 
Q 2906 2416 2648 2759 
Q 2391 3103 1925 3103 
Q 1463 3103 1205 2759 
Q 947 2416 947 1791 
Q 947 1169 1205 825 
Q 1463 481 1925 481 
Q 2391 481 2648 825 
Q 2906 1169 2906 1791 
z
M 3481 434 
Q 3481 -459 3084 -895 
Q 2688 -1331 1869 -1331 
Q 1566 -1331 1297 -1286 
Q 1028 -1241 775 -1147 
L 775 -588 
Q 1028 -725 1275 -790 
Q 1522 -856 1778 -856 
Q 2344 -856 2625 -561 
Q 2906 -266 2906 331 
L 2906 616 
Q 2728 306 2450 153 
Q 2172 0 1784 0 
Q 1141 0 747 490 
Q 353 981 353 1791 
Q 353 2603 747 3093 
Q 1141 3584 1784 3584 
Q 2172 3584 2450 3431 
Q 2728 3278 2906 2969 
L 2906 3500 
L 3481 3500 
L 3481 434 
z
" transform="scale(0.015625)"/>
       <path id="DejaVuSans-74" d="M 1172 4494 
L 1172 3500 
L 2356 3500 
L 2356 3053 
L 1172 3053 
L 1172 1153 
Q 1172 725 1289 603 
Q 1406 481 1766 481 
L 2356 481 
L 2356 0 
L 1766 0 
Q 1100 0 847 248 
Q 594 497 594 1153 
L 594 3053 
L 172 3053 
L 172 3500 
L 594 3500 
L 594 4494 
L 1172 4494 
z
" transform="scale(0.015625)"/>
       <path id="DejaVuSans-2d" d="M 313 2009 
L 1997 2009 
L 1997 1497 
L 313 1497 
L 313 2009 
z
" transform="scale(0.015625)"/>
       <path id="DejaVuSans-34" d="M 2419 4116 
L 825 1625 
L 2419 1625 
L 2419 4116 
z
M 2253 4666 
L 3047 4666 
L 3047 1625 
L 3713 1625 
L 3713 1100 
L 3047 1100 
L 3047 0 
L 2419 0 
L 2419 1100 
L 313 1100 
L 313 1709 
L 2253 4666 
z
" transform="scale(0.015625)"/>
       <path id="DejaVuSans-6f" d="M 1959 3097 
Q 1497 3097 1228 2736 
Q 959 2375 959 1747 
Q 959 1119 1226 758 
Q 1494 397 1959 397 
Q 2419 397 2687 759 
Q 2956 1122 2956 1747 
Q 2956 2369 2687 2733 
Q 2419 3097 1959 3097 
z
M 1959 3584 
Q 2709 3584 3137 3096 
Q 3566 2609 3566 1747 
Q 3566 888 3137 398 
Q 2709 -91 1959 -91 
Q 1206 -91 779 398 
Q 353 888 353 1747 
Q 353 2609 779 3096 
Q 1206 3584 1959 3584 
z
" transform="scale(0.015625)"/>
      </defs>
      <use xlink:href="#DejaVuSans-67"/>
      <use xlink:href="#DejaVuSans-70" transform="translate(63.476562 0)"/>
      <use xlink:href="#DejaVuSans-74" transform="translate(126.953125 0)"/>
      <use xlink:href="#DejaVuSans-2d" transform="translate(166.162109 0)"/>
      <use xlink:href="#DejaVuSans-34" transform="translate(202.246094 0)"/>
      <use xlink:href="#DejaVuSans-6f" transform="translate(265.869141 0)"/>
     </g>
    </g>
    <g id="line2d_16">
     <path d="M 526.246875 79.212563 
L 540.246875 79.212563 
L 554.246875 79.212563 
" style="fill: none; stroke: #2ca02c; stroke-width: 2; stroke-linecap: square"/>
    </g>
    <g id="text_14">
     <!-- qwen -->
     <g transform="translate(565.446875 84.112563) scale(0.14 -0.14)">
      <defs>
       <path id="DejaVuSans-71" d="M 947 1747 
Q 947 1113 1208 752 
Q 1469 391 1925 391 
Q 2381 391 2643 752 
Q 2906 1113 2906 1747 
Q 2906 2381 2643 2742 
Q 2381 3103 1925 3103 
Q 1469 3103 1208 2742 
Q 947 2381 947 1747 
z
M 2906 525 
Q 2725 213 2448 61 
Q 2172 -91 1784 -91 
Q 1150 -91 751 415 
Q 353 922 353 1747 
Q 353 2572 751 3078 
Q 1150 3584 1784 3584 
Q 2172 3584 2448 3432 
Q 2725 3281 2906 2969 
L 2906 3500 
L 3481 3500 
L 3481 -1331 
L 2906 -1331 
L 2906 525 
z
" transform="scale(0.015625)"/>
       <path id="DejaVuSans-77" d="M 269 3500 
L 844 3500 
L 1563 769 
L 2278 3500 
L 2956 3500 
L 3675 769 
L 4391 3500 
L 4966 3500 
L 4050 0 
L 3372 0 
L 2619 2869 
L 1863 0 
L 1184 0 
L 269 3500 
z
" transform="scale(0.015625)"/>
       <path id="DejaVuSans-6e" d="M 3513 2113 
L 3513 0 
L 2938 0 
L 2938 2094 
Q 2938 2591 2744 2837 
Q 2550 3084 2163 3084 
Q 1697 3084 1428 2787 
Q 1159 2491 1159 1978 
L 1159 0 
L 581 0 
L 581 3500 
L 1159 3500 
L 1159 2956 
Q 1366 3272 1645 3428 
Q 1925 3584 2291 3584 
Q 2894 3584 3203 3211 
Q 3513 2838 3513 2113 
z
" transform="scale(0.015625)"/>
      </defs>
      <use xlink:href="#DejaVuSans-71"/>
      <use xlink:href="#DejaVuSans-77" transform="translate(63.476562 0)"/>
      <use xlink:href="#DejaVuSans-65" transform="translate(145.263672 0)"/>
      <use xlink:href="#DejaVuSans-6e" transform="translate(206.787109 0)"/>
     </g>
    </g>
   </g>
  </g>
 </g>
 <defs>
  <clipPath id="pdfd3ee0c8c">
   <path d="M 532.96 267.76 
C 532.96 238.15549 527.128557 208.838847 515.799402 181.487847 
C 504.470246 154.136847 487.863702 129.283397 466.930153 108.349847 
C 445.996603 87.416298 421.143153 70.809754 393.792153 59.480598 
C 366.441153 48.151443 337.12451 42.32 307.52 42.32 
C 277.91549 42.32 248.598847 48.151443 221.247847 59.480598 
C 193.896847 70.809754 169.043397 87.416298 148.109847 108.349847 
C 127.176298 129.283397 110.569754 154.136847 99.240598 181.487847 
C 87.911443 208.838847 82.08 238.15549 82.08 267.76 
C 82.08 297.36451 87.911443 326.681153 99.240598 354.032153 
C 110.569754 381.383153 127.176298 406.236603 148.109847 427.170153 
C 169.043397 448.103702 193.896847 464.710246 221.247847 476.039402 
C 248.598847 487.368557 277.91549 493.2 307.52 493.2 
C 337.12451 493.2 366.441153 487.368557 393.792153 476.039402 
C 421.143153 464.710246 445.996603 448.103702 466.930153 427.170153 
C 487.863702 406.236603 504.470246 381.383153 515.799402 354.032153 
C 527.128557 326.681153 532.96 297.36451 532.96 267.76 
M 307.52 267.76 
C 307.52 267.76 307.52 267.76 307.52 267.76 
C 307.52 267.76 307.52 267.76 307.52 267.76 
C 307.52 267.76 307.52 267.76 307.52 267.76 
C 307.52 267.76 307.52 267.76 307.52 267.76 
C 307.52 267.76 307.52 267.76 307.52 267.76 
C 307.52 267.76 307.52 267.76 307.52 267.76 
C 307.52 267.76 307.52 267.76 307.52 267.76 
C 307.52 267.76 307.52 267.76 307.52 267.76 
C 307.52 267.76 307.52 267.76 307.52 267.76 
C 307.52 267.76 307.52 267.76 307.52 267.76 
C 307.52 267.76 307.52 267.76 307.52 267.76 
C 307.52 267.76 307.52 267.76 307.52 267.76 
C 307.52 267.76 307.52 267.76 307.52 267.76 
C 307.52 267.76 307.52 267.76 307.52 267.76 
C 307.52 267.76 307.52 267.76 307.52 267.76 
C 307.52 267.76 307.52 267.76 307.52 267.76 
z
"/>
  </clipPath>
 </defs>
</svg>
